<?xml version="1.0" encoding="UTF-8" standalone="no"?>
<!DOCTYPE svg PUBLIC "-//W3C//DTD SVG 1.1//EN" "http://www.w3.org/Graphics/SVG/1.1/DTD/svg11.dtd">
<svg version="1.1" xmlns="http://www.w3.org/2000/svg" xmlns:xlink="http://www.w3.org/1999/xlink" preserveAspectRatio="xMidYMid meet" viewBox="0 0 435 435" width="435" height="435"><defs><path d="M87.5 220.86C87.5 149.11 145.75 90.86 217.5 90.86C289.25 90.86 347.5 149.11 347.5 220.86C347.5 292.61 289.25 350.86 217.5 350.86C145.75 350.86 87.5 292.61 87.5 220.86Z" id="e9zJ2x7mO"/><path d="M217.5 417.5C107.12 417.5 17.5 327.89 17.5 217.5C17.5 107.12 107.12 17.5 217.5 17.5C317.95 17.5 401.2 91.72 415.37 188.26C416.77 197.8 417.5 207.57 417.5 217.5C417.5 327.89 327.88 417.5 217.5 417.5Z" id="b4p6Kb6DJP"/><path d="M30.54 347.82C30.54 327.12 47.34 310.32 68.04 310.32C88.74 310.32 105.54 327.12 105.54 347.82C105.54 368.52 88.74 385.32 68.04 385.32C47.34 385.32 30.54 368.52 30.54 347.82Z" id="c1atNFa0Ug"/><path d="M356 90.86C356 78.44 366.08 68.36 378.5 68.36C390.92 68.36 401 78.44 401 90.86C401 103.28 390.92 113.36 378.5 113.36C366.08 113.36 356 103.28 356 90.86Z" id="g1bke3ugZM"/></defs><g><g><g><use xlink:href="#e9zJ2x7mO" opacity="1" fill="#e89300" fill-opacity="1"/><g><use xlink:href="#e9zJ2x7mO" opacity="1" fill-opacity="0" stroke="#000000" stroke-width="1" stroke-opacity="0"/></g></g><g><use xlink:href="#b4p6Kb6DJP" opacity="1" fill="#000000" fill-opacity="0"/><g><use xlink:href="#b4p6Kb6DJP" opacity="1" fill-opacity="0" stroke="#07ddeb" stroke-width="24" stroke-opacity="1"/></g></g><g><use xlink:href="#c1atNFa0Ug" opacity="1" fill="#ffeb00" fill-opacity="1"/><g><use xlink:href="#c1atNFa0Ug" opacity="1" fill-opacity="0" stroke="#000000" stroke-width="1" stroke-opacity="0"/></g></g><g><use xlink:href="#g1bke3ugZM" opacity="1" fill="#ffeb00" fill-opacity="1"/><g><use xlink:href="#g1bke3ugZM" opacity="1" fill-opacity="0" stroke="#000000" stroke-width="1" stroke-opacity="0"/></g></g></g></g></svg>